<svg xmlns="http://www.w3.org/2000/svg" viewBox="0 0 2048 1743" width="1280" height="1280" xmlns:v="https://vecta.io/nano"><style><![CDATA[.B{fill:#06396f}.C{fill:#fefffe}.D{fill:#266399}.E{fill:#78bfde}.F{fill:#62abce}.G{fill:#77bedd}.H{fill:#0e548e}.I{fill:#5fa8cc}.J{fill:#5ea7cb}.K{fill:#4c90c0}.L{fill:#60a9cd}.M{fill:#062556}.N{fill:#4386b8}.O{fill:#3a7baf}]]></style><path d="M0 0h2048v1743H0z" class="D"/><path d="M999 251h44l45 4 33 4 38 7 30 7 29 9 40 14 26 11 34 16 17 9 16 9 9 6 7 4 15 10 16 11 19 14 16 13 9 7 13 11 16 15 28 28 7 8 4 5 5 5 7 8 3 3 2 4 5 5 3 4v2h2l1 3 4 4 3 4v2h2l1 4h2l12 17 9 13 3 5 4 6 12 20 7 13 3 4 3 7 3 6v2h2l4 10 4 7 2 5 4 8 2 5 5 11 12 32 10 30 10 38 7 34 5 33 3 27 2 32v49l-1 23-6 49-6 32-6 25-2 11-2 4v5l6-10 10-13 11-11 9-6 10-4 11-3 11-1h10l-3 2-13 3-16 8-13 11-11 13-10 18-9 19-8 12-11 13-4 5-5-1-21-7-10-2h-19l-17 4-21 9-20 14-1 2-6-1-3-3-7-3-10-5-15-3h-28l-16 4-9 3-18 8-23 12-9 4-3 3-7 3-11 6-14 7-15 8-10 4-7 3-17 6-9 3-13 4-5 12-2 4h-2v3h-2l-2 4-7 7-15 10-4-1 3-1v-2l5-5 2-7 6-5 11-7 6-5 2-6v-13l-2-4-4-2 1-4 5-4h2v-2l6-4 3-1v-2l11-8 14-12 5-4h2v-2l13-10 10-9 13-10 15-13 10-8 13-11 11-9 15-13 16-13 9-7-3 1-20 9-15 7-19 9-20 10-10 4-26 13-16 7-14 7-26 12-16 8-26 12-17 8-40 20-26 12-16 8-20 11-6 5h-2l-1 5-3 4-3 1h-15l-31-2-8-6-2-3v-4l7-3h5v-2l9-2h18l11 3 9 5-4-4-12-6-6-2h-16l-13 4-5 3h-2l-1 3h-2v-6l-10-3-54-19-28-10-16-5-41-14-12-4-7-3-9-3-29-9-42-15-15-5-10-3-11-4-3-2-7-2-1-2 13-5 5-1-1-7 4 1 7 1h7l-6-8v-4l8 1 19 8 18 6h2l-31-14-8-6 2-4 10-7 7-10 8-4 6-7 3-8 6 1 11 5 16 8 20 9 10 3 26 12 18 8 38 19 8 5 9 5 21 14 11 9 14 12 11 13 7 10 5 9 1 2 1-1 2-20 4-14 5-14 6-10 5-9 11-14 9-10 9-9 17-13 14-9 15-9 16-8 19-10 7-3h3v-2l7-3 17-9h4v-2l6-3h2l-1-70-2-77-2-29-1-6-2-1v8l-6 23-4 8-4 4 1-9 2-10 2-9v-26l-4-16-5-10-1-3h-2l-4-5-12-8-13-5-7-2-8-3v-3h-8l-13-1-5 8-15 25-13 22-9 12-13 13-14 10-21 12-22 9h-10l-19-10-18-12-11-11-27-36v-3l13-9 7-8h2l6 11 3 6 2 7v5h3l-1-15-4-11-1-3h-2l-2-5 1-5 5-14 5-4 9-2 10-3 8-3 17-6 5-3 8-3 10-4v-2l-17-2-15-9-13-12-10-11-9-12-4-7-2-7v-8l8-6 9-6 6-3 16-1 2-2 5-2 2-4-5 3-12 3 2-4 6-4 7-8 8-8 9-14 12-25 7-10 11-11 11-7 7-4 10-1 6 12 8 17 13 26 2 7v7l-2 5-2 10-3 24-4 16-5 12-4 6-6 17-2 15h-2v-19l2-6-12 12-10 8-2 3v17l4 5 16 8 10 3 1 1 12 2-3-5-5-2-6-11-1-4v-12l4-13 8-14 6-7 8-7 14-11 11-10 8-11 6-13 3-12v-17l-3-12-3-7-7-11-9-10-5-5-10-9-5-7 4 2 13 13 8 7 10 11v2h2l8 15 2 6 1 13-1 14-4 15-7 14-6 8-1 2h-2l-2 4-9 10h-2v2l5-3 1-2h2l2-4 3-1 2-4 8-9 7-11 5-11 3-11 1-9v-13l-3-12-7-16-2-7 4 2 5 6 5 5 4 5 6 12 2 8v20l-4 14-8 14-6 8-8 7-12 9-13 6 9-2 5-4 7-4 11-9 7-8 1-2h2l2-5 6-12 5-18 1-1v-22l-3-7-4-9-7-11-9-10-7-8-2-3v-25l-2-12-2-5-2-8-2-1v-3h-2l-5-6-9-4-8-6-34-34-14-10-13-7-19-6-13-2h-26l-12 2-13 4-16 8-19 12-10 6-8 3-14 6-9 6-10 9-5 7h-2l-1 4-13 21-10 15-8 11-9 10-9 9-10 7-15 8-9 3-8 2-33 1-17 2-11 6-6 7 6-4 8-4 7-2 48-1 15-3 12-4 14-9 10-9 7-7 12-16 6-11 8-14 6-11 10-16 13-13h2l-2 5-9 9-6 9-5 9-13 23-9 16-10 13-2 3h-2l-2 4-11 10-11 7-9 4-12 4-13 2-36 1-13 3-13 7-10 9-7 10-9 15-4 20v27l1 4 3-11 7-11 11-11 9-5 17-5 30-7 40-10h6l-4 3-24 7-20 5-17 6-10 4-11 7-12 11-8 15-4 15-4 26-5 12-11 12h3l7-6 6-8 5-12 6-28 5-12 7-10 10-10 12-7 12-4 27-4h6l-1 2-15 4-9 3-10 4-14 9-7 7-6 10-3 8-5 22-5 15-5 8-5 5-9 6-17 6-18 5-16 8-9 7-9 10-6 12-3 11v20l5 13 6 10 4 3-5-10v-25l4-11 6-10 9-10 9-6 15-5 9-1 2 2-11 6-11 9-8 11-5 12-1 9 5-12 7-11 6-5 5-5 12-7 16-6 14-3h4l-1 3h-2v2l-5 5-8 13-4 10-8 29-8 14-10 10-9 5-11 5-25 7-17 5-8 6-2 3h-2l1 3 9-9 2-1 20-2 3 2-19 11-12 11-5 7-4 8-3 9-1 8h-2l1 13 4 17 1 1 3-15 6-10 8-10 8-8 5-2v-2l16-8 15-5 16-3h3l-2 4-8 13-3 7v7l5-12 9-13 11-8 16-8 20-8 11-4h2l-1 9-2 6-14 4-10 2-16 5-9 7-4 7-1 4v8l3 14 3 6v3h2l1-9 4-10 7-8h2v-2l10-5 17-4h5v16l-4 1v2l-5 2-6 1 15 1v9l-1 9-10 4-21 6-13 5-11 8-6 5-6 8-7 14 7-10 5-5 9-8 10-5 9-3 21-3h12l1 1v16l-4 57-2 31-3 24-6-1-18-7-6-3 7 8 11 12 8 7 1 19 5 21 5 8v2l3 1v3l-17 1-19 5-17 9-12 11-6 7-9 16-8 19-2-3v-2l-6-2-10-9-12-8-19-9-16-6-15-3-18-2h-11l-23 5-5-2-6-16-5-9-9-10-7-6-21-13-12-6-14-4-6-1h-16l-17 4h-4l-11-24-13-33-8-25-8-36-5-31-3-31-1-17v-69l2-31 3-25 1-13 4-17 6-28 7-27 10-32 8-21 12-30 4-11h2l3-9 5-9 3-7 4-6 11-22 5-8 5-7 5-10 12-18 9-13h2l1-4 7-9 9-12 13-16 3-4h2l2-4 11-12 7-8 12-13 11-10 14-14 8-7 10-8 4-4h2v-2l8-6 7-6 9-6 3-1v-2l10-7 17-12 33-21 9-5h3v-2l4-2h3v-2l24-12 15-8 7-3 13-5 11-5 19-7 36-12 28-8 30-7 33-6 30-4 4-1z" class="G"/><g fill="#021d4d"><path d="M1000 420h26l17 3 10 3 16 8 12 8 12 11 29 29 6 4 8 3 5 5v2h2v3l3 1 5 16 1 9v25l7 8 12 14 8 13 3 8 2 5v22l-8 24-7 12h-2l-2 5-9 9-8 6-9 6-6 3-7 1 3-3 14-7 10-8 5-5h2l2-4 7-10 5-11 3-11v-20l-4-13-7-11-3-3v-2l-3-1-6-7-2-1 4 9 7 17 2 9v13l-2 13-4 12-7 13-8 10-6 7-5 5h-2l-1 3-6 4-2-1 3-1v-2l5-4 8-10h2l2-5 6-9 5-10 4-15 1-19-2-11-8-16v-2h-2l-8-10-8-8-8-7-9-9 3 4 7 8 5 4 5 5 9 10 6 10 4 10 2 9v17l-4 14-8 16-11 12-22 18-3 1-1 3-5 5-6 9-6 12-2 8v12l4 10 3 5 5 2 2 5-12-1-7-3-10-4-11-6-4-5v-17l5-6 11-9 7-8h2l-1 6-1 19h2l1-15 7-19 4-6 5-13 4-18 2-19 3-12 1-3v-7l-3-10-10-19-8-16-7-16-10 1-14 8-12 11-6 7-10 19-8 16-8 11-22 22 7-3 7-2 3-1-1 4-2 2-5 2-1 1-16 1-12 7-10 7v8l3 9 8 12 9 10 7 8 10 9 15 9 17 2 2 2-6 4-6 2-24 10-13 4-7 3-6 2-9 2-2 2-5 14-1 5 1 5h2l4 8 2 6v15h-3l-4-15-5-9-2-5-5 5-9 8-6 4h-2l4 7 10 13 12 16 9 10 7 6 19 12 14 7h10l22-9 24-14 13-10 12-12 10-15 17-29 9-15 4-6 1-1 13 1 8 1 1 3 8 3 12 3 10 5 11 8 2 4h2l5 8 5 15 1 6v26l-2 9-2 10-1 8 4-6 5-16 3-12 1-8 3 1 2 18 1 17 2 77v70l-6 3h-2v2l-7 3-17 9h-4v2l-12 5-17 9-16 8-22 13-19 14-13 12-7 7-13 17-8 13-6 13-6 21-2 20-2 2-8-14-11-14-8-9-11-9-12-10-17-11-9-6-10-5-19-10-19-9-16-8-27-12-7-3-10-3-19-9-12-6-11-5-6-2-1 6-4 6-7 6-6 3-7 10-10 7 1 3 10 6 29 13-4 1-23-8-14-6-8-2 2 5 4 5v2l-11 1-7-3 2 4-1 4-10 3-7 3 8 3 6 3 9 3 16 5 21 7 31 11 29 9 9 3 16 6 36 12 14 5 27 9 48 17 24 9v6l8-6 10-4 5-1h16l15 6 8 6-1 2-11-6-9-2h-18l-9 1v2l-12 3 3 7 7 5 31 2h18l2-4 2-5 11-8 29-15 20-9 60-30 28-13 17-8 26-12 15-7 28-14 15-7 8-4 10-4 14-7 22-10 8-4 26-12h3l-8 7-14 11-15 13-13 11-16 13-14 12-11 9-16 13-14 12-4 3h-2v2l-14 11-8 7-8 6h-2v2l-7 5h-2v2l-7 5-1 3 5 2 2 4v13l-3 7-10 8-10 6-3 3-2 8-3 3h-2v2l-2 1 4-1 15-10 7-7 1-2h2v-3h2l1-4 3-6 2-6 9-3 13-4 30-12 19-9 10-6 9-4 10-6h4l1-3 10-4 18-10 14-7 13-5 17-5 5-1h28l15 3 18 9 14 12 10 11v3h2l10 19 4 15 1 18-4 24-3 8-4 11-2 10-4 9-4 11-21 45-12 25 5-1h24l26 5 24 7 35 13 23 10 20 10v2h3v2h3v2l5 2 8 9 6 9 2 5v5l41 3 39 3 25 4 7 2-1 4-13 4-14 1-3 1-51 4-46 2-35 2-34 1-140 2-39 1-189 1H738l-77-1-5-1-60-1-125-1-39-1-4-1-49-1-6-1-90-4-8-1-28-2-20-3-6-3v-3l5-2 25-4 28-3 2-1 9-1 4-15 3-9h2l1-7 5-9 8-12 11-13 3-4h2l2-4 8-6 15-11 16-8 13-5 17-4h34l12 4 4 3h6l12-6 18-5h26l18 3 19 3 15 3 14 5v2l5 1 4 3 8-1v-2l10-3 6-2h28l18 4 12 5 10 6 8 7-3-5-3-7-10-21-9-23-6-17-6-22-2-13v-25l4-12 5-12 8-14 9-10 10-9 17-9 19-5h17l-1-3-4-4-4-7-5-21-1-19-13-12-7-8-5-5v-2l6 2 18 7 6 2 1-17 1-7 4-63 2-25v-16h-12l-21 3-13 5-10 6-8 9h-2l-2 4-4 6-2 1 2-6 7-12 8-9 14-10 15-6 23-6 5-2 2-18h-15l-1-2 7-1 5-1v-2l3-1 1-16-19 4-10 4-3 1v2l-6 5-5 9-3 13h-2l-4-9-3-14v-8l3-8 6-7 9-5 15-5 16-3 6-1 3-15-13 5-27 11-14 8-6 5-9 13-5 14h-1v-10l8-16 6-8-13 3-16 4-16 7-2 2h-3v2l-8 6-7 7-6 8-6 12-2 12-2 1-3-10-2-9v-13h2v-8l4-10 5-10 9-10 10-8 15-8-3-1-19 2-8 7-4 3v-4l8-7 4-3 24-7 20-6 9-4 10-6 8-8 6-11 4-9 6-23 5-12 8-12 3-4h2v-2l3-3-21 5-17 7-10 7h-2l-2 4-3 3h-2l-2 5-6 10-4 12h-1v-8l4-13 9-14 10-9 10-6 3-1-2-1-10 2-13 4-11 8-7 8-8 16-1 4v25l4 8v2l-4-2-6-9-5-12-1-3v-20l5-16 7-11 10-10 7-5 18-8 21-6 15-6 5-4 3-4h2l2-5 4-8 4-15 5-21 6-11 9-10 10-7 12-6 7-3 17-4 3-1-12 1-20 3-14 5-11 7-10 10-8 14-4 15-4 19-5 12-9 11-5 4-5 1 6-7 7-9 4-10 5-31 4-12 7-13 8-8 9-7 11-6 16-6 42-11 11-4-8 1-48 12-26 6-13 5-8 6-7 7-5 7-4 10-2 7h-1l-1-6v-27l4-20 7-12 8-12 9-9 9-5 7-4 13-3 36-1 17-3 14-5 11-7 13-11 3-4h2l2-4 10-14 12-21 7-12 5-9 9-14 8-8 3-5-8 7-7 7-12 20-14 26-7 10-10 13-13 13-14 9-9 4-14 4-7 1-48 1-12 4-7 5h-2l2-4 7-6 8-4 17-2 33-1 14-4 16-8 9-6 10-9 8-8 12-17 8-12 13-21 2-4 5-5 7-8 10-8 27-12 11-6 17-11 11-6 22-7z"/><path d="M1000 420h26l17 3 10 3 16 8 12 8 12 11 29 29 6 4 8 3 5 5v2h2v3l3 1 5 16 1 9v25l7 8 12 14 8 13 3 8 2 5v22l-8 24-7 12h-2l-2 5-9 9-8 6-9 6-6 3-7 1 3-3 14-7 10-8 5-5h2l2-4 7-10 5-11 3-11v-20l-4-13-7-11-3-3v-2l-3-1-6-7-2-1 4 9 7 17 2 9v13l-2 13-4 12-7 13-8 10-6 7-5 5h-2l-1 3-6 4-2-1 3-1v-2l5-4 8-10h2l2-5 6-9 5-10 4-15 1-19-2-11-8-16v-2h-2l-8-10-8-8-8-7-9-9 3 4 7 8 5 4 5 5 9 10 6 10 4 10 2 9v17l-4 14-8 16-11 12-22 18-3 1-1 3-5 5-6 9-6 12-2 8v12l4 10 3 5 5 2 2 5-12-1-7-3-10-4-11-6-4-5v-17l5-6 11-9 7-8h2l-1 6-1 19h2l1-15 7-19 4-6 5-13 4-18 2-19 3-12 1-3v-7l-3-10-10-19-8-16-7-16-10 1-14 8-12 11-6 7-10 19-8 16-8 11-22 22 7-3 7-2 3-1-1 4-2 2-5 2-1 1-16 1-12 7-10 7v8l3 9 8 12 9 10 7 8 10 9 15 9 17 2 2 2-6 4-6 2-24 10-13 4-7 3-6 2-9 2-2 2-5 14-1 5 1 5h2l4 8 2 6v15h-3l-4-15-5-9-2-5-5 5-9 8-6 4h-2v3l-5 1 1 5 6 9 3 8 2 14v23l-3 9-5 11-2 5h-2l-2 4-10 11-3 3-6 3-3-1 12-11 7-9 4-10 2-10v-13l-2-12-4-12-8-17-1 1-3 28-4 16-4 11-8 15-10 13-8 9-9 6-14 10-6 3-16 12-10 10-8 12-2 4-1-2 3-19 4-8 3-5 1-3-2-2-7-1-9 6-6 7h-2l-2 4-4 6-5 9-9 11-3 3-15 5-11 2-24 2-16 3-12 5-9 6-7 8h-2l-2 4-4 6-2 1 2-6 7-12 8-9 14-10 15-6 23-6 5-2 2-18h-15l-1-2 7-1 5-1v-2l3-1 1-16-19 4-10 4-3 1v2l-6 5-5 9-3 13h-2l-4-9-3-14v-8l3-8 6-7 9-5 15-5 16-3 6-1 3-15-13 5-27 11-14 8-6 5-9 13-5 14h-1v-10l8-16 6-8-13 3-16 4-16 7-2 2h-3v2l-8 6-7 7-6 8-6 12-2 12-2 1-3-10-2-9v-13h2v-8l4-10 5-10 9-10 10-8 15-8-3-1-19 2-8 7-4 3v-4l8-7 4-3 24-7 20-6 9-4 10-6 8-8 6-11 4-9 6-23 5-12 8-12 3-4h2v-2l3-3-21 5-17 7-10 7h-2l-2 4-3 3h-2l-2 5-6 10-4 12h-1v-8l4-13 9-14 10-9 10-6 3-1-2-1-10 2-13 4-11 8-7 8-8 16-1 4v25l4 8v2l-4-2-6-9-5-12-1-3v-20l5-16 7-11 10-10 7-5 18-8 21-6 15-6 5-4 3-4h2l2-5 4-8 4-15 5-21 6-11 9-10 10-7 12-6 7-3 17-4 3-1-12 1-20 3-14 5-11 7-10 10-8 14-4 15-4 19-5 12-9 11-5 4-5 1 6-7 7-9 4-10 5-31 4-12 7-13 8-8 9-7 11-6 16-6 42-11 11-4-8 1-48 12-26 6-13 5-8 6-7 7-5 7-4 10-2 7h-1l-1-6v-27l4-20 7-12 8-12 9-9 9-5 7-4 13-3 36-1 17-3 14-5 11-7 13-11 3-4h2l2-4 10-14 12-21 7-12 5-9 9-14 8-8 3-5-8 7-7 7-12 20-14 26-7 10-10 13-13 13-14 9-9 4-14 4-7 1-48 1-12 4-7 5h-2l2-4 7-6 8-4 17-2 33-1 14-4 16-8 9-6 10-9 8-8 12-17 8-12 13-21 2-4 5-5 7-8 10-8 27-12 11-6 17-11 11-6 22-7z"/></g><path d="M1127 759l13 1 8 1 1 3 8 3 12 3 10 5 11 8 2 4h2l5 8 5 15 1 6v26l-2 9-2 10-1 8 4-6 5-16 3-12 1-8 3 1 2 18 1 17 2 77v70l-6 3h-2v2l-7 3-17 9h-4v2l-12 5-17 9-16 8-22 13-19 14-13 12-7 7-13 17-8 13-6 13-6 21-2 20-2 2-8-14-11-14-8-9-11-9-12-10-17-11-9-6-10-5-19-10-19-9-16-8-27-12-7-3-10-3-19-9-9-4 3-28 3-25 6-49 1-5h2l2-4v-12l22-16 5-3 7-8 10-13 10-19 5-17 3-22 1-12 2-2 8 16 4 10 2 7 1 9v13l-3 13-5 10-9 10-8 7 5-2h3l1-3 16-16 4-10 4-9 1-5v-23l-3-17-6-12-3-4 1-4h6l13 17 12 16 9 10 7 6 19 12 14 7h10l22-9 24-14 13-10 12-12 10-15 17-29 9-15 4-6z" class="B"/><path d="M295 1037h8l11 4 9 6 7 12 6 1h16l12 3 6 7 2-1 8 23 14 34 6 13v2l21-5h16l17 4 10 4 20 12 11 8 10 10 6 10 6 15 1 3 4 1 23-5h11l25 3 16 5 15 6 17 9 13 10 4 4 6 3 3 3-1 5v25l3 17 7 25 11 28 8 18 6 11 3 7v3l-9-8-15-8-13-4-11-2h-28l-13 4h-3v2l-4 2-5-1-4-3-4-1v-2l-5-1-9-3-25-5-17-2-10-2-23-2-23-5-12-5-7-9-9-16-18 1h-14l-12-4-6-5-3-6v-4l-23 3-6-1-18-10-5-4-7-11-2-4-1-13-9 1h-42l-16-3-16-6-9-6-4-5 1-7 7-6 10-5 16-4h26v-7l6-8 9-6 8-3 16-2h11l10 2v-2l-4-2-10-15-3-9v-3l-8 2h-13l-14-7-7-11-5-13v-3h-10l-9-5-3-3v-10l1-4-8 1-6-2-9-1-5-5-2-5 1-5 4-7 5-6-9-5-1-3 4-5 16-8 18-3 11-7zm1492-37h10l17 4 12 4h19l4 3 1 7-2 9-6 8-8 8-12 7-7 3h-3l6 9 6 10 1 3v19l-3 10-10 15-7 7-21 7h-13l-4-1-8 11-6 9-7 4-1 2 11 3 10 6 11 9 4 4 3 8 1 3h2l1 8 3 9 2 8v9l-3 8-2 5-6 9-5 4-6 1-5 5-8 4-10 2-11-3-4 4-3 12-5 9-13 13-4 9-9 6-15 6-12 3-18 1-2 25-3 7-7 8-5 5-5 4-9 3-8 1-4 1h-17l-11-2h-5l-3 1-2 6-2 1-16-3-26-5h-29l2-6 14-29 13-29 4-8 3-9 5-12 2-10 4-11 3-9 3-20-1-18-4-15-9-17v-2h-2l-3-5-9-10-7-6 3-1 2-4 21-14 19-8 17-4h19l17 4 14 5 5 1 9-11 8-10 9-16 9-19 7-11 12-14 12-10 16-8 13-3-1-2h5l1-3 14-1 7-8 3-2 7-2 4-7 8-7 5-2h4z" fill="#4284b9"/><path d="M1273 968h2l7 10 10 9-1 5-8 7-11 10-18 13-21 13-21 12-29 15-26 14-19 11-16 11-15 13-5 5 5-4 13-11 15-10 12-7 16-8 29-15 42-23 17-10 12-8 16-12 12-11 4 2 6 7 17 9 1 2-7 8-9 9-15 11-13 8-14 8-17 8-19 10-25 12-28 14-22 13-19 13-11 9-16 16-10 15 6-7 14-15 7-7 13-10 22-14 17-10 24-12 23-11 40-20 22-12 16-10 13-11 4-4h3l5 9 10-1 1 1v8l7-1-1 4-5 3-5 1-7 10-8 8-10 7-18 10-23 11-14 7-21 9-31 15-14 7-5 2-15 8-12 6-20 13-9 7-2 2 19-12 16-9 22-11 31-14 16-8 12-5 25-11 35-17 14-8 22-14 13-10 8-7h3l10 10 7 5v2l-29 14-32 16-37 17-36 16-21 10-30 13-37 18-17 10-11 8-11 9-9 10-5 8 8-1-4 5-4 3h-2l-1 5-3 4-3 1h-15l-31-2-8-6-2-3v-4l7-3h5v-2l9-2h18l11 3 9 5-4-4-12-6-6-2h-16l-13 4-5 3h-2l-1 3h-2v-6l-10-3-54-19-28-10-16-5-41-14-12-4-7-3-9-3-29-9-42-15-15-5-10-3-11-4-3-2-7-2-1-2 13-5 5-1-1-7 4 1 7 1h7l-6-8v-4l8 1 19 8 18 6h2l-31-14-8-6 2-4 10-7 7-10 8-4 6-7 3-8 6 1 11 5 16 8 20 9 10 3 26 12 18 8 38 19 8 5 9 5 21 14 11 9 14 12 11 13 7 10 5 9 1 2 1-1 2-20 4-14 5-14 6-10 5-9 11-14 9-10 9-9 17-13 14-9 15-9 16-8 19-10 7-3h3v-2l7-3 17-9h4v-2l20-11 14-10 13-11 8-7z" fill="#fdfefd"/><path d="M1127 759l13 1 8 1 1 3 8 3 12 3 10 5 11 8 2 4h2l5 8 5 15 1 6v26l-2 9-2 10-1 8 4-6 5-16 3-12 1-8 3 1 2 18 1 17 2 77v70h-1l-2-81-7 13-5-2-9-11-10-2-13-1-7 5-9 2 1 4-3 4h-3v2h-2l-1-7-1-16-1 14-6 18-1 5h-2l-2 9-8 13h-2l-2 4-7 7-10 7-14 5-14 4h-11l4-3 19-8 13-8 10-9-4 3h-7l-3-1v-3l-3-1-2-8-10-8-16-5-22-2h-12l-10-1h-59l-21 2-15 3-11 1-7 2h-32l-12-3-16-2-6-6v11l3 24 4 23 1 15h2l2 13 3 9 1 8 2 2 1 8-5-1-31-14 3-28 3-25 6-49 1-5h2l2-4v-12l22-16 5-3 7-8 10-13 10-19 5-17 3-22 1-12 2-2 8 16 4 10 2 7 1 9v13l-3 13-5 10-9 10-8 7 5-2h3l1-3 16-16 4-10 4-9 1-5v-23l-3-17-6-12-3-4 1-4h6l13 17 12 16 9 10 7 6 19 12 14 7h10l22-9 24-14 13-10 12-12 10-15 17-29 9-15 4-6z" class="H"/><path d="M1079 546h6l6 12 8 17 13 26 2 7v7l-2 5-2 10-3 24-4 16-5 12-4 6-6 17-2 15h-2v-19l2-6-12 12-10 8-2 3v17l4 5 16 8 10 3 1 1 9 1 9 3 13 2 2 1-2 5-9 16-15 25-10 16-11 12-7 7-14 10-21 12-22 9h-10l-19-10-18-12-11-11-27-36v-3l13-9 7-8h2l6 11 3 6 2 7v5h3l-1-15-4-11-1-3h-2l-2-5 1-5 5-14 5-4 9-2 10-3 8-3 17-6 5-3 8-3 10-4v-2l-17-2-15-9-13-12-10-11-9-12-4-7-2-7v-8l8-6 9-6 6-3 16-1 2-2 5-2 2-4-5 3-12 3 2-4 6-4 7-8 8-8 9-14 12-25 7-10 11-11 11-7 7-4z" fill="#bbaabc"/><path d="M1452 1143h28l15 3 18 9 14 12 10 11v3h2l10 19 4 15 1 18-4 24-3 8-4 11-2 10-4 9-4 11-2 1v-3l-1 2h-2l-2 5h-2v2h-12l-4 1-1-1-1-10 1-2h2l2-5 6-10 1-3-13 13-7 4-5 2-7 6-5 1 1-10-4-1 1-9 7-9 5-5 1-2h2v-2l2-1-5 1-7 8-8 6-1-2-8 2-4 3-5-2-10 1-4-1-1-5h2l2-4 11-6 5-4 8-4 5-5 9-8 11-9 9-11 12-15 10-20-9 13-8 10-7 7-7 8-5 4h-3l-1 2-4 4-8 7-6-2v3h-2l-2 5-6 2-2 3h-2v2l-14 8-10 7-9 3-24 3-1 1-7 1-5 3-5 2h-5l-2-6-11-1-5 3-11 1-15-1-5-2-1-4 5-4 25-15 1-2-16 8-17 8-7 3-11 3-14 2-6 2v-2l-6-1-1-2-6-1-17 5h-7l-6 2h-6l-8-4-5-2-2-2 1-4h2l2-4 11-6h2v-2l5-1v-2l10-3v-2l16-8 26-15 14-7 14-8 20-10 17-9 25-11 15-7 18-7 19-6 18-5-19 3-21 5-13 1-16 6h-5v-2l-8 2 3-3 9-4 27-14 10-4 7-3 17-5z" fill="#05386e"/><path d="M847 953l2 3 6 22 9 19 16 22 5 5 11 9 15 10 5 3 1 3 6 1h20l6 1 10-2 6 1 7 2 8 1 1-4 11-1 1-1h12l10-1 23 1 10 3 1 1 23 3 8 2 12-1 5-3 8-10 4-4 3-5 8-9 5-5 3-6 5-26 2-1-1 10-3 23-2 14-5 21-3 8-18 13-13 11-11 11-13 17-8 13-6 13-6 21-2 20-2 2-8-14-11-14-8-9-11-9-12-10-17-11-9-6-10-5-19-10-19-9-16-8-36-16-3-9-1-1-3-16-1-1-1-13h-2l-5-34-3-20z" fill="#021d4d"/><path d="M911 812l2 1 9 19 4 13 1 9v13l-3 13-5 10-9 10-8 7h4v2l4 2 9-3 9-1 5 2 3-2 7 3v2l12-2h18l11 2h10l14 2 7 4 6 1 10-2 9 1h13l2-1h6 3l9 1 3 2h5l4 3 15 1 5-1 4 4v2l4 2 3 4 3 5 2 2 1 5 7 1 2-10 2-5h2l1-2v9l-4 13-7 14-8 10-4 2-2 2h-7l-3-1v-3l-3-1-2-8-10-8-16-5-22-2h-12l-10-1h-59l-21 2-15 3-11 1-7 2h-32l-12-3-16-2-6-6v11l3 24 4 23 1 15h2l2 13 3 9 1 8 2 2 1 8-5-1-31-14 3-28 3-25 6-49 1-5h2l2-4v-12l22-16 5-3 7-8 10-13 10-19 5-17 3-22 1-12z" fill="#094983"/><path d="M1452 1143h28l15 3 18 9 14 12 10 11v3h2l10 19 4 15 1 18-4 24-3 8-4 11-2 10-4 9-4 11-2 1v-3l-1 2h-2l-2 5h-2v2h-12l-4 1-1-1-1-10 1-2h2l2-5 6-10 1-3-13 13-7 4-5 2-7 6-5 1 1-10-4-1 1-9 7-9 5-5 1-2h2v-2l2-1-5 1-7 8-8 6-1-2-8 2-4 3-5-2-10 1-4-1-1-5h2l2-4 11-6 5-4 8-4 5-5 9-8 11-9 9-11 12-15 10-20-4 6-5 3-7 3-4 3-4-2-22-1-14-3h-19l-33 3-8-1-7-1-10-4-9-2v-4l2-4 8-5 3-3 19-8 25-8 18-5-19 3-21 5-13 1-16 6h-5v-2l-8 2 3-3 9-4 27-14 10-4 7-3 17-5z" fill="#094982"/><path d="M1127 759l13 1 8 1 1 3 8 3 12 3 10 5 11 8 2 4h2l5 8 5 15 1 6v26l-2 9-2 10-1 8 4-6 5-16 3-12 1-8 3 1 2 18 1 17v27h-1l-2-9-4 2v3h-3l-1 2-5-3-6-4-11-2-12-4-4-4-4-1v-2l-3-1v-2h-12l-9-2-14 1-8 1-9-1-2 1h-10l-5 2h-23l-10 2-24 4-7 3-6 1-3-1v-6l-1-2 17-7 24-14 13-10 12-12 10-15 17-29 9-15 4-6z" class="D"/><path d="M810 922l7 1 3 4-3 6-4 6-3 14-1 9 4-8 8-10 10-10 14-10h3v12l-3 4h-2l-1 13-6 50-3 24-2 19-9-3-8-4-4-1-1 6-4 6-7 6-6 3-7 10-10 7 1 3 10 6 29 13-4 1-23-8-14-6-8-2 2 5 4 5v2l-11 1-7-3 2 4-1 4-10 3-7 3h-3v-17l-1 16-3-1 3-24 4-63 2-25v-17l19-4 11-4h2l2-5 8-10 4-7 4-6 3-4h2l2-4 9-8z" class="B"/><path d="M1768 1171l4 2 5 4 4 4 3 8 1 3h2l1 8 3 9 2 8v9l-3 8-2 5-6 9-5 4-6 1-5 5-8 4-10 2-11-3-4 4-3 12-5 9-13 13-4 9-9 6-15 6-12 3-18 1-2 25-3 7-7 8-5 5-5 4-9 3-8 1-4 1h-17l-11-2h-5l-3 1-2 6-2 1-16-3-26-5h-29l2-6 6-13 3 1 7-3 10 3 1 1h11l4 1h25l5 1 4-10 5-5 5-4 7-5 7-2v-2l10-4 11-5 10-5 5-5 7-3 5-5 10-7h2v-2l4-1 2-5 2-3h2v-2l5-5 8-7 7-6 6-2v-2l5-5h2v-2l4-4h2l2-5 12-11 5-5 9-8 2-5h2v-2h2l2-5 5-5 4-5h3v-2l5-2 3-16 4-2-2-7z" fill="#3574aa"/><path d="M491 1345h26l18 3 19 3 15 3 14 5v2l5 1 4 3 8-1v-2l10-3 6-2h9l-1 2 4 4-4 2-7 2-5 3-10 5-1 1-7-1v-2l-7 1-7-1-5 2 4 6-3 3-12 3-13 1-11 3-11 7-9 3-4 1-1 3-6 2-5-1 1-7h-13l-6 2h-14l-8 2-6-2h-18l-2 1-13-1-3-5v-6l-3-3-10 1-8 2-5 4h-14l-9 1h-7l-9 3-8 2-10 2-15 2-2-2v-3l10-12h2l2-4 8-6 15-11 16-8 13-5 17-4h34l12 4 4 3h6l12-6zm1030 30h8l26 5 24 7 35 13 23 10 20 10v2h3v2h3v2l5 2 1 2-7 2-14-1-2-1h-16l-9 2h-16l-15 1-9 3-28 2-7-1-6-1-7-2-12-1h-31l-10-1-7 2-4 1-3-1 2-5 11-15 11-19 6-12 4-3 12-2 10-1z" class="B"/><path d="M1208 1183l8 1 20 5 9 4 12 7 4 1v3l5 2 2 4v13l-3 7-10 8-10 6-3 3-2 8-3 3h-2v2l-2 1 1 2-17 7-10 2h-8l-14-7-14-14-8-9-7-13v-21l5-4 2-8 9-3h5v-2l5-3 9 1 10 7 6 4 10 7 12 10 5 3v2l10-1-2-5-9-6-19-8-8-8-1-7z" fill="#256298"/><path d="M1375 1064h15l11 2 2 4 3 1-23 11-18 8-7 4-10 4-26 13-16 7-14 7-26 12-16 8-26 12-17 8-40 20-26 12-16 8-17 9-10 1 5-9 12-13 15-12 26-15 35-17 30-13 37-17 33-15 26-12 27-13 19-10z" fill="#4f92c1"/><path d="M1523 1204l1 2-1 5 2 9 5 2 13 13 3 5 2 9 1 1v8l-4 13-2 5-2 10-4 9-4 11-2 1v-3l-1 2h-2l-2 5h-2v2h-12l-4 1-1-1-1-10 1-2h2l2-5 6-10 1-3-13 13-7 4-5 2-7 6-5 1 1-10-4-1 1-9 7-9 5-5 1-2h2v-2l2-1-5 1-7 8-8 6-1-2-8 2-4 3-5-2-10 1-4-1-1-5h2l2-4 11-6 5-4 8-4 5-5 9-8 11-9 9-11 12-15 5-10z" class="B"/><path d="M693 772l3 2-11 6-11 9-8 11-5 12-1 9 5-12 7-11 6-5 5-5 12-7 16-6 14-3h4l-1 3h-2v2l-5 5-8 13-4 10-8 29-8 14-10 10-9 5-11 5-25 7-16 4-1-5 6-5 1-2h2l2-4 11-8h2l1-7-4-8v-25l4-11 6-10 9-10 9-6 15-5z" fill="#5fa7cb"/><path d="M712 1106l5 5 11 10 1 19 5 21 5 8v2l3 1v3l-17 1-19 5-17 9-12 11-6 7-9 16-8 19-2-3v-2l-6-2-10-9-12-8-19-9-16-6 1-2h2l-4-6-7-2-6 1-4-2-12 1v-2l-4-2-3 3h-2v-2h-2v-2l4-3 10-1 6 1v-2l14 3 8 1 3 2h7l10 3 1 3 3 2v2l4 2 4 3v2l4-1 5 1 6-2 4-3h3l-1-4 6-9h2l1-2h2l1-4 3-6 10-5h2l1-3 12-3 20-4 10-4 3-5 1-5-5-16v-6h3l1-4 1-3-5-6-2-1-1-5 3 1z" fill="#61a9cd"/><path d="M743 882h2l-1 9-2 6-14 4-10 2-16 5-9 7-4 7-1 4v8l3 14 3 6v3h2l1-9 4-10 7-8h2v-2l10-5 17-4h5v16l-4 1v2l-5 2-6 1 15 1v9l-1 9-10 4-21 6-13 5-11 8-4 1h-2l-1-10 1-6-3-7-3-6v-2h-2l-3-10v-15h-8l-6-1-9 3-11 7-7 1 1-5 2-3h2v-3l5-3 8-2h5l1-8-2-2 15-5 16-3h3l-2 4-8 13-3 7v7l5-12 9-13 11-8 16-8 20-8z" fill="#60a8cc"/><path d="M1148 915h1l1 5 1 23h2v-2l4-2 1-6 11-4 5-4 13 1 10 2 9 11 5 2 6-13 2 1 1 41v38l-1-2-9 6-14 7-6 1 3-6 6-5h2l1-3-2-7-3-4-2-9-5-7-2-8-10-4-13-1-9 4-9 6h-3v2h-2v-8l-3-5-2 1 2-9h2l1-8 5-15z" fill="#094983"/><path d="M922 1217h8l5 6h10l5 4 1 6v2l4 2v9l-3 10-3 6-2 5-7-1-7-3-9-2v-2l-9-2-8-4-13-4-7-3v-2l-5-1v-4l14-8 11-7 10-5z" fill="#246197"/><path d="M911 812l2 1 9 19 4 13 1 9v13l-3 13-5 10-9 10-4 4h-9l-3-1-2 4h-10l-9 6-3-1 1-4h2l2-5 8-8 11-16 8-17 4-14 3-22 1-12z" fill="#0d528b"/><path d="M974 688l5 4 9 11 9 9 13 9 7 4 17 2 2 2-6 4-6 2-24 10-13 4-7 3-6 2-8 1 4-32 2-13v-20z" class="D"/><path d="M1298 1171l2 1-5 6-1 2h-2l-2 8h-2v2l-3 3v3h2v3l9-2 6-3 9-2 13-5h5l1 1 12-2 9-3 7-1v2l2 1-16 8-17 9-10 4-7 3-17 6-9 3-13 4-5 12-2 4h-2v3h-2l-2 4-7 7-15 10-4-1 3-1v-2l5-5 2-7 6-5 11-7 6-5 2-6v-13l-2-4-4-2 1-4 5-4h2v-2l6-4 3-1v-2l11-8z" class="I"/><path d="M842 945h2l2 10 4 29 4 23 1 15h2l2 13 3 9 1 8 2 2 1 8-5-1-31-14 3-28 3-25z" class="J"/><path d="M857 1007l4 1 6 12 2 2 3 11v7l9-1 1 3 1 7 5 2v2h2v2l9 2 9 3 7 2 8 7-1 9 5 3 5-1 11 2 8 6 3 5 4 4v2l10-1 6 3 5 6 9 7v3l-3 1-5-3-5-4-1-2-10-4-15-8-12-6-15-8-13-5-11-5-5-2-7-4-7-1-6-3-4-4-4-1-2-5-1-1-3-16-1-1-1-13h-2l-1-10 2 2v-3z" class="B"/><path d="M737 919h5v16l-4 1v2l-5 2-6 1 15 1v9l-1 9-10 4-21 6-5 2-3-1 1-1-1-10-3 3-4-2-1-4h2l1-9 4-10 7-8h2v-2l10-5z" class="J"/><path d="M1295 499l7 1 20 10 17 11 14 10 11 9 10 9 8 7 11 13 10 16 8 16 11 24 14 26 7 10 1 6h-3l-7-8-10-13-8-12-4-7-4-10-11-22-10-16-9-12-1-3h-2l-7-8-17-17-11-9-11-8-15-10-19-12z" class="C"/><path d="M728 976h12l1 1v16l-4 57-2 31-3 24-6-1-14-5 3-4 1-7 5-5 4-2 2-2 2-11 3-13 1-1v-21l1-8v-11l2-8v-6h-7l-3-3-2-5-1-1-13 1-9 3-10 2-11 2-3-2 8-8 13-7 9-3z" class="I"/><path d="M1267 541l8 1 18 7 19 10 16 11 11 9 10 9 15 15 12 17 11 18 8 15 8 24v9l-4-5-2-4 3 11 10 35 4 12v2h-3l-8-16-6-17-4-26 1-6-6-16-11-21-14-20-11-13-12-13-8-7-13-10-15-10-17-10-20-10z" fill="#fdfefd"/><path d="M798 642h6l-1 2-15 4-9 3-10 4-14 9-7 7-6 10-3 8-5 22-5 15-5 8-5 5-9 6-17 6-10 3-8-1 4-3 17-6 5-1 7-6 6-8 5-12 6-28 5-12 7-10 10-10 12-7 12-4z" fill="#498dbd"/><path d="M1116 544l4 2 13 13 8 7 10 11v2h2l8 15 2 6 1 13-1 14-4 15-7 14-6 8-1 2h-2l-2 4-9 10h-2v2l-5 5-12 9-4 5-2 1-7 17v21l2 5v3l-5-1-6-11-1-4v-12l4-13 8-14 6-7 8-7 14-11 11-10 8-11 6-13 3-12v-17l-3-12-3-7-7-11-9-10-5-5-10-9z" fill="#498dbb"/><path d="M822 620h6l-4 3-24 7-20 5-17 6-10 4-11 7-12 11-8 15-4 15-4 26-5 12-2 1 1-11 4-23-3-6v-2h-4l-2-2v-12l2 4 3-11 7-11 11-11 9-5 17-5 30-7z" fill="#5da5ca"/><path d="M1157 569l4 2 5 6 5 5 4 5 6 12 2 8v20l-4 14-8 14-6 8-8 7-12 9-13 6 1 2-9 1 5-5 6-4 1-2h2l2-4 3-1 2-4 8-9 7-11 5-11 3-11 1-9v-13l-3-12-7-16z" class="I"/><path d="M1316 529l7 1 15 8 16 11 13 11 9 9 12 16 9 15 12 23 12 22 7 11 9 10 2 2v3l-5-2-11-9-10-12-8-13-20-35-16-24-8-10-14-14-17-13-14-9z" class="C"/><path d="M1580 1129h19l-2 2 2 5-3 3h-2l-1 3-9 6h-7l-4 1-4-3v-2h-2l-1 5-2 1-7 1-7 2-2 4h-3v5h-2v4h-8l-4 1-2-1 1 3-4-2-8-7 3-1 2-4 21-14 19-8z" class="K"/><path d="M1141 894l3 3 2 9 1 10v15l-2 13-4 13h-2l-2 9-8 13h-2l-2 4-7 7-10 7-14 5-14 4h-11l4-3 19-8 13-8 12-11 8-10 4-8 4-11 4-18 1-2z" fill="#f5f5f6"/><path d="M1154 761h12l13 4 11 6 10 9 6 9 6 13 2 9v16l-3 16-4 15-4 8-4 4 1-9 2-10 2-9v-26l-4-16-5-10-1-3h-2l-4-5-12-8-13-5-7-2-8-3 1-2z" fill="#fcfcfc"/><path d="M910 466h2l-2 5-9 9-6 9-5 9-13 23-9 16-10 13-2 3h-2l-2 4-11 10-11 7-9 4-12 4-13 2-36 1-13 3-11 6h-2v-2l-4 1-4 2-2 4-3 5-3 1-3 6h-3l2-4 6-8 3-3 4-7 5-1 5-4 12-4 48-1 15-3 12-4 14-9 10-9 7-7 12-16 6-11 8-14 6-11 10-16z" fill="#6ab1d4"/><path d="M545 1198h11l25 3 1 3 2 1v2l5 2 2 3-8 4-4-2-5-2h-8l-2 2h-5v-2l-12 4-7 1-9 1-12-4-6-4 1-3 8-4z" class="K"/><path d="M696 801l4 2-6 18 1 3-2 4-4 2-2 5-5 5-3 5-3 3-10 3-4 1-4-4v-3h2l1-7v-7l3-2 3-7 3-6 7-6 1 2h6v-2l7-1 1-3 3-2z" class="G"/><path d="M1405 645l3 3 6 17 6 37 6 27 8 24 8 16 4 7v2l-5-1-8-9-8-14-7-19-4-15-3-19-4-36-2-15z" class="C"/><path d="M1375 1064h15l11 2 2 4 3 1-23 11-4 1 2-5-16 6-26 11-11 4h-2l-1-5h2v-2h5l2-4 5-3h2l-1-4 27-14z" fill="#61aacd"/><path d="M1208 1183l8 1 20 5 9 4 12 7 1 2-5 1-4 1v5l-3 5-1 4 2 1-3 1-3-5-10-6-17-7-8-8-1-7z" fill="#0d528b"/><path d="M743 882h2l-1 9-2 6-14 4-10 2-16 5-9 7-4 7-1 4v10l-2-1-1-5h-5v-2l-4-1v-4l9-13 11-8 16-8 20-8z" fill="#3f82b6"/><path d="M1452 1143h28l15 3 12 6v2l7 6 8 7 5 6-1 2-5-1-9-7-8-4-12-4-15-3h-16l-9-3-1-5 7-3-6-1z" class="H"/><path d="M728 976h12l1 1v16l-4 57-2 31-3 24-6-1-14-5 3-4 1-7 5-5 4-2 2-2 2-11 3-13 1-1v-21l1-8v-11l3-13 1-1v-22l-10-1z" fill="#5fa7cc"/><path d="M815 1117l9 1 28 8 30 8 44 13 37 12 28 12 21 11 4 4-1 2-9-5-15-8-16-7-33-11-50-15-59-17-16-6z" class="E"/><path d="M844 1211h20l17 2 5 5v6l-8 5-9 1v2l-7-1-16-8-10-7 1-3z" fill="#0c5089"/><path d="M961 402h16l2 1v3l-20 4-23 7-17 8-17 12-9 8h-3l1-5 9-10 8-8 13-9 11-5 21-5z" class="C"/><path d="M1266 1208l2 2v13l-3 7-10 8-10 6-3 3-2 8-3 3h-2v2l-2 1 1 2-17 7-10 2h-8l2-5 5-5 5-6 14-8 6-2v-3l12-2 14-7 2-4 6-7 1-12z" fill="#4285b9"/><path d="M681 904h3l-2 4-8 13-4 10-1-3h-8l-6-1-9 3-11 7-7 1 1-5 2-3h2v-3l5-3 8-2h5l1-8-2-2 15-5z" class="L"/><path d="M852 1010l2 1 1 11h2l2 13 3 9 1 8 2 2 1 8-5-1-29-13 2-8 1-3 8-1h10l-1-12-2-6v-3h2z" fill="#75bbdb"/><path d="M1052 1213h20l14 4 6 4-1 5-7 2-11-1h-26l-7-3-1-6 5-3z" fill="#9fa5be"/><path d="M640 880l4 2-19 11-12 11-5 7-4 8-3 9-1 8h-1l-2-7v-14l6-16 5-8h3l8-8 2-1z" fill="#4b8ebe"/><path d="M1125 684l2 1-10 8-7 6-3 3-7 17v21l2 5v3l-5-1-6-11-1-4v-12l4-13 7-12 7-4 10-5 3 1z" fill="#5fa7cb"/><path d="M1396 565l4 2 10 14 19 38 13 23v3l-4-1-9-12-9-14-8-17-6-12-9-20z" class="C"/><path d="M859 819h4l-1 6h-2v3l-9 5-6 4-8 1-4-1-2-1v-4l-20-4 2-4 6-1h25l11-1z" class="B"/><path d="M1157 569l4 2 5 6 5 5 4 5 5 10 1 13-1 3v8l-3 5-6 1-1-27-2-13-2-5-5-2-4-9z" fill="#6db4d6"/><path d="M974 688l5 4 9 11 7 7-1 2-6-4-5 3-1 4 2 7-3 3-9-2-1 10h-1v-10l2-13v-20z" fill="#0f538d"/><path d="M1088 604h6l8 3 5 2v2l-15 3-1 1-15 3h-21l2-4 13-5 9-3z" class="M"/><path d="M1151 652l1 4-6 8-1 2h-2l-2 4-9 10h-2v2l-9 6-3-1-9 5-5 2-2 1 2-4 4-5 8-7 14-11 5-1 4-2 1-3 6-5h2l2-4z" fill="#5fa6cb"/><path d="M1787 1000h8v2l-7 3-5 4-7 9-4 6-6 1-10 3-6 5-16 1 1-4 14-1 7-8 3-2 7-2 4-7 8-7z" fill="#73bada"/><path d="M822 620h6l-4 3-24 7-20 5-17 6-10 4-7 4-5-1 1-5 3-2-1-2 38-9z" fill="#5ea3ca"/><path d="M749 580h48v1l-9 1 8 1v1l-36 1-13 3-11 6h-2v-2l-4 1-4 2-2 4-3 5-3 1-3 6h-3l2-4 6-8 3-3 4-7 5-1 5-4z" fill="#4183b6"/><path d="M1407 1159h4v2l-2 2 3 1 4-1 20-1 5 1-4 2-21 5-13 1-16 6h-5v-2l-8 2 3-3 9-4z" fill="#093d73"/><path d="M1370 1369l3 1-10 7-15 8-12 5-16 8-16 7-13 3h-11v-2l11-4 17-5 28-11 21-10zM888 842l1 4-3 6-2 6-7 11-10 10-5 3-4-1-4 3h-8l1-3h2v-2l9-5 15-13 9-10h2l1-4z" class="B"/><path d="M1600 1246h7l3 2-8 3-15 4-16 8-13 9-8 7h-2l1-4 11-12 7-6 14-7 11-3z" class="C"/><path d="M484 1157l9 5 12 12 2 4-8 3-9-6-2-2-6-1-7-8v-4l9-1z" fill="#4d91c1"/><path d="M693 772l3 2-11 6-11 9-8 11-3 4-2-3 1-5-1-8 3-5 4-4 11-4 6-2z" fill="#4b8fbf"/><path d="M1394 674l2 2 8 26 8 27 2 8h-3l-8-16-6-17-4-26z" class="C"/><path d="M1039 568v3l-3 7-3 2-1 6-4 7-3 9-6 12 1 2-7 8-10 10v-2l-7 3-3-1 3-1 1-3 8-7 9-9 7-12 3-7h2l1-10 3-6 4-6v-2z" fill="#063a70"/><path d="M1349 1129l2 1-3 4-2 4h-2v2l-4 1v2l-5 5-3 6-11 5h-3v5l-3 3-5 2-5 5-4-1 6-8 1-2h2v-2l13-10 10-9 13-10z" class="L"/><path d="M1267 1224h2l-1 6-4 8h-2v3h-2l-2 4-7 7-15 10-4-1 3-1v-2l5-5 2-7 6-5 11-7 6-5z" fill="#b2a7bc"/><path d="M910 466h2l-2 5-9 9-6 9-5 9-13 23-9 16-4 2-1-3 4-5 6-11 8-14 6-11 10-16z" fill="#6db0d3"/><path d="M674 1350l5 1 10 19 3 7v3l-9-8-15-8 1-2v-7z" fill="#3170a6"/><path d="M1055 1204h16l15 6 8 6-1 2-11-6-9-2h-18l-9 1v2l-12 3-1 2v-2h-2v-7h1v6l8-6 10-4z" fill="#3872a5"/><path d="M1125 684l2 1-10 8-7 6-3 3-7 17v21l2 5v3l-5-1-5-9 1-6h1l2-11 3-10 6-12 4-5 5-4 8-4z" fill="#478bbd"/><path d="M725 772h4l-1 3h-2v2l-5 5-8 13-4 10-7 26-1-4v-8l4-10 2-7 1-10 3-4v-2h2l-1-3h2v-6l-3-2z" fill="#488bbb"/><path d="M615 889v3l-6 7-4 3h8l-2 5-4 7-3 5-3 9-1 8h-1l-2-7v-14l6-16 5-8 1 2 5-3z" fill="#5aa1c8"/><path d="M1076 788h12v2l-24 5-19 3-7 2h-6v-4l10-4 18-3z" fill="#579dc7"/><path d="M1173 627h3l1 4h3l1-2-1 9-8 16-7 9-8 7-9 7-4-1 5-3 6-7 5-4 1-2h2l2-5 4-4 2-4h2l1-5-2-1 1-5-4-2 1-6z" fill="#72b9da"/><path d="M466 1246h18l12 5 9 6 7 6 4 7-1 2-13-11-14-7-22-5z" class="C"/><path d="M1685 1062h7v4l-4 9-4 4-2 5-8 4-1-3-4 4-1-2 8-14z" class="K"/><path d="M728 976h12l1 1v16l-4 57-1 14h-1l-2-21v-10l1-8v-11l3-13 1-1v-22l-10-1z" fill="#579ec5"/><path d="M1161 597l2 3 1 13-1 14-4 15-6 12h-3l-4 4h-2l-2 4-8 7-3-2 10-9 8-11 6-13 2-7 1 4 1-2 2-7z" class="N"/><path d="M1131 1024h1l1 6 2 24-12 7h-1l1-7 6-26z" fill="#468abb"/><path d="M1162 580l6 3 3 17 1 25h5l2-4v-12h1v-10l2 3 1 5v20l-2 4h-4l-1-4-2 2-4 1-3 7-1-4 2-7 1-9v-13l-3-12-4-10z" fill="#589fc6"/><path d="M1096 468l4 1 8 6 16 10 11 8 10 10 6 10 2 6v4h-2l-9-17-9-10-13-10-18-11-6-5z" fill="#6bb0d4"/><path d="M968 790h18l12 2 4 2v4h-10l-23-3-3-1-1 2-1-5z" fill="#4e93c1"/><path d="M798 642h6l-1 2-15 4-9 3-10 4h-3-5l-1-3-3-1 14-5z" fill="#3d80b4"/><path d="M491 1345h26l7 1v1h-17l-3 6-4 1h-8l-4-1-8-3-4-1z" fill="#0a4b84"/><path d="M1240 1242l3 1-14 7-10 6-4 5-4 3h-2l-1 6h5v1l-6 1h-8l2-5 5-5 5-6 14-8 6-2v-3z" fill="#3574aa"/><path d="M954 1096l4 1v2l10-1 6 3 5 6 9 7v3l-3 1-5-3-5-4-1-2-10-4-11-6z" class="B"/><path d="M1570 1131h6l-3 4-7 3-5 3-6 1-7 4-6-1-5 6-4 1-2-2 11-8 21-9z" fill="#4285ba"/><path d="M1010 693l10 3 12 2h8l10-2 8-1-5 5-12 3h-12l-13-3-6-4z" fill="#4b8fc0"/><path d="M1030 1216h1l-1 12-6 27-8 30-1 3h-2l2-12 7-28 6-28z" fill="#074179"/><path d="M1170 1250l7 6 5 6-10 2-8-1-4-1-1-4 6-5 5-1z" class="B"/><path d="M1052 1213h20l14 4 5 4-1 4h-2l-3-4-10-3h-31l1-2h3v-2z" fill="#062657"/><path d="M1106 1214l2 4-14 36-11 30-7 19-2 1 1-7 8-20 5-14 14-38 3-9z" fill="#15538a"/><path d="M1213 827l3 1 2 18 1 17v27h-1l-1-26v-14h-8l2-11z" fill="#4581b3"/><path d="M1047 1221h26l10 2h5v2l2-1 2-3-1 5-7 2-11-1-2-1-26-2-3-2z" fill="#4386b7"/><path d="M834 999h1v15l-3 21-1 11-9-3-3-3 8 1 4-31z" fill="#052556"/><path d="M1095 633h2l-1 4-6 5-8 3h-12l-11-4-2-2v-3l6 2 9 2h9l10-4z" fill="#0d3568"/><path d="M700 960h2l2 11-10 6h-2l1-3-2-1v2l-5-1 1-5 2-2 4 1 3 2v-2h-2v-7l5 2z" fill="#76bddd"/><path d="M1031 637l2 3-1 26v17h-5l-2-3 1-7 2-6 2-23z" fill="#4284b5"/><path d="M880 819h2l-2 7 1 2-6 9-3 1-1 3-11 9-4-2 2-4h5v-2l6-5 1-5h2l3-6h2l2-4z" class="B"/><path d="M761 635l4 1-3 2h6l-2 2-13 5-7 4-5-1 1-5 3-2-1-2z" fill="#468abb"/><path d="M776 1080l5 2 16 8 18 8-4 1-23-8-14-6-4-2h6z" fill="#306a9c"/><path d="M747 585v3l-11 6h-2v-2l-4 1-4 2-2 4-3 5-3 1-3 6h-3l2-4 6-8 3-3 4-7 5-1 7-2z" fill="#5aa1c8"/><path d="M1116 544l4 2 13 13 8 7 10 11v2h2l4 7v5l-5-5-7-11-9-10-5-5-10-9z" fill="#60a6cc"/><path d="M1055 1209h18l11 3 9 5h3v2l-10-1-14-4-14-1v-1l7-1-19 1 4-2z" fill="#b1b4c8"/><path d="M1176 606l3 3 1 4v8l-3 5-6 1v-9l2-10h3z" class="G"/><path d="M816 575l5 1v2l-12 4-5 1h-39v-1l32-1v-2l15-3z" fill="#72b6d7"/><path d="M737 1048h1v35l-3 7-1 16-3-1 3-24 2-31z" fill="#072e61"/><path d="M1050 506l2 1-16 10-10 8-8 7h-2l-2 4-7 7h-2l2-4 7-6 7-8 9-8 11-7z" class="B"/><path d="M1173 653l1 3h-2l-2 5-9 9-8 6-9 6-6 3-7 1 3-3 14-7 10-8 5-5h2l2-4 5-5z" fill="#113c6f"/><path d="M1296 1102l2 1-3 1v2l-11 4h-2v2l-10 2-1 3h-2v2h-2v2h-8v2l-9 2-4 2-3-1 28-13 20-9z" fill="#74afce"/><path d="M817 1067l5 1 34 14 12 6-4 1-27-11-20-10z" class="E"/><path d="M854 1012l2 2 1 5 2 1 8 33v5h-2l-2-5-1-1-3-16-1-1-1-13h-2z" fill="#092e60"/><path d="M683 915l2 1v6h2l1 14-2-1-1-5h-5v-2l-4-1v-4l4-6z" fill="#498dbd"/><path d="M871 1216l5 1 1 5h-3l-2 7-3 2-6-1-4-2 1-4 8-1 3-2-1-4z" class="D"/><path d="M762 571h41v1l-8 2-43 1 1-3z" fill="#4e93c0"/><path d="M1013 586v3l-10 8-10 6-22 9h-5l2-2 13-5 12-6 13-8 6-4z" class="B"/><path d="M1019 704l13 3h10l7-2-2 5-6 2h-12l-8-4z" fill="#63abce"/><path d="M910 466h2l-2 5-9 9-6 9-5 9-2-3 2-5 7-11z" fill="#dcd8e0"/><path d="M1060 1210l8 1v1l-16 2-11 3-1 2 2 8-6-4-2-3v-4l7-3z" fill="#f8f9f9"/><path d="M1207 1201l8 4 11 10 8 5-3 1-13-6v-2l-3-1-1-2-5-3-2-3z" fill="#0a4a83"/><path d="M569 422l2 1-2 1zm-3 3l2 1-44 44v-3l8-8 7-8 13-12 5-5z" fill="#65abd0"/><path d="M1131 1041h1v5h2l1 8-12 7h-1l1-7 3-3h2z" fill="#69aed0"/><path d="M640 880l4 2-16 9-1-2h2v-2h-5l-1-3-2-2z" fill="#3e80b5"/><path d="M1266 1208l2 2v13l-3 7-10 8-10 6-4 1 2-4 14-7 2-4 6-7 1-12z" fill="#4284b8"/><path d="M1162 580l6 3 3 17v22l-4 15-1-4 2-7 1-9v-13l-3-12-4-10z" fill="#3a7aae"/><path d="M1050 1205l4 1-1 2 2 2-9 1v2l-12 3-1 2v-2h-2v-7h1v6l8-6z" fill="#3f75a6"/><path d="M842 945h2l2 10 3 20v8h-1l-4-27-1 1-4 29h-1l1-16z" fill="#3a7aaf"/><path d="M709 1060h6l3 4-1 5-3 2-6-1-1-1v-7z" class="C"/><path d="M761 581h27v1l8 1v1l-36 1-11 1 3-3z" fill="#5499c3"/><path d="M608 951l2 2v10l-3 1v9l-1 4-4-1v-10l2 1 3-15z" class="L"/><path d="M693 772l3 2-11 6-7 5v-3l1-1-3-2 1-1-2-2 10-3z" fill="#3d7eb4"/><path d="M1137 1196v3l-29 15-10 1 2-3h3l3-2 7-1 12-8z" fill="#90a9c5"/><path d="M809 1038l1 4-5 8-7 6-7 2 1-5 6-2 5-4 2-7z" class="M"/><path d="M681 904h3l-2 4-5 8-5-3-1-4h-9l3-2z" fill="#4b8fbd"/><path d="M987 867l8 3 2 5-2 2h-6l-7-5z" fill="#256298"/><path d="M751 766h2l-1 3-8 7-9 9-6 8-1-2 4-7 14-15z" fill="#4e92bd"/><path d="M1039 568v3l-3 7-3 2-1 6-3 6-3 1 2-11 6-9v-2z" class="B"/><path d="M1349 1129l2 1-3 4-2 4h-2v2l-9 4-6 5-1 2-4-1 14-12 9-7z" fill="#69afd4"/><path d="M1053 792h6l1 2h-4v2l-16 3h-7v-2l11-4h7l2 1z" fill="#2b699f"/><path d="M1140 676l7 1-2 2-13 6 1 2-9 1 5-5 6-4 1-2z" fill="#70a8cb"/><path d="M1038 527l2 1-6 9-10 12-3 1 2-5 5-8h2l2-4z" class="B"/><path d="M1053 695h5l-5 5-12 3h-12v-1l9-1 2-3 10-2z" fill="#559bc6"/><path d="M894 472l4 1-7 8-2 3h-2l-1 4-4 6-1-4 3-1v-6l5-7h2v-2z" fill="#559cc4"/><path d="M1258 1412h7l-3 5-11 4-5-1 1-3 6-2z" class="B"/><path d="M1452 1143h28l1 3-4 2h-8l-2-2-15-2z" fill="#10518a"/><path d="M728 976h12l1 1v16l-2 25h-1v-40l-10-1z" class="O"/><path d="M1096 468l4 1 8 6 15 9-2 3-20-13-5-4z" fill="#74a7c9"/><path d="M546 1181l2 2h-2v7l-1 1h-10v-3h2l2-4z" class="F"/><path d="M708 800h2l-2 9-6 22-1-4v-8l4-10z" class="N"/><path d="M1151 652l1 4-6 8-2 2v-2l-3 2h-3v2l-5 3h-2l1-3 4-2 3-1 1-3 6-5h2l2-4z" fill="#4d91c0"/><path d="M876 518l1 3-9 16-4 2-1-3 4-5 6-11z" fill="#6db1d4"/><path d="M1592 1065h4l1 6-3 3h-6l-1-5 2-3z" class="C"/><path d="M1125 684l2 1-10 8-7 6-4 5-2-1 2-5 8-8 8-4z" fill="#1c5186"/><path d="M1030 1216h1l-1 12-4 16-2 1 1-12 4-16z" fill="#0a447c"/><path d="M788 1060l3 1-6 8-9 6h-2l1-4 5-5h3l2-4z" fill="#072657"/><path d="M1055 1209h18l4 3-1 1h-18v-1l7-1-19 1 4-2z" fill="#a5b9cf"/><path d="M1555 831l5 1 1 2v6l-4 2-4-3v-6z" fill="#cec1ce"/><path d="M1085 694h2l1 5 1 3-2 13-1 5h-2v-19z" fill="#2b699f"/><path d="M718 685l1 3-5 31-2 6h-1v-8l2-3 2-23 2-5z" class="O"/><path d="M798 642h6l-1 2-15 4-9 1 2-3h3v-2z" class="N"/><path d="M1106 1214l2 4-12 30-1-4 7-19 3-9z" fill="#3b7caf"/><path d="M1179 1021h9l-3 4-12 5h-2l2-5z" fill="#084882"/><path d="M1118 989l2 1-5 5-7 5-7 3h-6l3-3 11-5z" fill="#082859"/><path d="M1096 703l2 1-1 7h-2l-1 9h-2l-1 12h-1v-12l4-13z" fill="#3e80b2"/><path d="M976 792h14l7 2 4 2-1 1h-9l-6-2h-6z" fill="#3776ac"/><path d="M1160 602l2 1v19l-2 7-2 5-1-3 1-9h2z" class="J"/><path d="M1073 1206l6 1 12 6 3 3-1 2-11-6-9-2z" fill="#235d91"/><path d="M966 798h1v18l-3 5h-2l-1-18 2 3v5h3z" fill="#3d7eb0"/><path d="M1547 1262l1 2h2l-1 9h-2l1 3-2 2h-3l-1 3 1-8z" fill="#2e6da3"/><path d="M1031 637l2 3-1 26-3-4v-11z" fill="#5aa1c9"/><path d="M1147 650l1 4-2 4h-2l-2 4-8 7-3-2 10-9z" fill="#3d7fb4"/><path d="M774 632h4v2l2 1-9 3-10 1 2-3h2v-2z" fill="#5298c2"/><path d="M844 353l4 1 1 1v5l-3 3-4-1-1-1v-5z" class="C"/><path d="M792 1088l21 9 2 2-7-1-15-5z" fill="#62a2c9"/><path d="M920 882h2l-1 5-7 9-4 1 1-6h3v-3l5-5z" fill="#08457e"/><path d="M940 1223l7 1 3 4-4 3-5-1v-2l-2-1 1-2h-5v-1z" fill="#0e518b"/><path d="M1131 1024h1l1 6v10h-3v-2h-2l-1 5-1-2 4-16z" fill="#3374a9"/><path d="M1061 790h15l-3 1v2l-9 2h-8z" fill="#4487bb"/><path d="M1024 522h3l-2 4-7 6h-2l-2 4-7 7h-2l2-4 7-6 7-8z" fill="#094279"/><path d="M1091 1000l3 1-5 3-12 3h-6v-2z" fill="#042252"/><path d="M737 919h5v16l-4 1v2l-2-1 2-3h3v-8l-4-2 1-3h-7v-1z" fill="#3f80b3"/><path d="M897 479l1 4-2 5-6 10-2-3 2-5z" fill="#a8b1c8"/><path d="M690 746l2 1-1 3h-3v2l-5 2-8-1 4-3z" fill="#5aa2c8"/><path d="M1147 575l4 2v2h2l4 7v5l-5-5-5-8z" fill="#62a8cd"/><path d="M561 1199l9 1 2 2-7 3-7-1 2-4z" fill="#4285ba"/><path d="M1085 994h8l-3 3-13 5-3-1 4-3 5-2z" fill="#072657"/><path d="M1018 1264l2 4-4 17-1 3h-2l2-12z" fill="#063a71"/><path d="M761 1089l4 1 3 2 4 1v2l-11 1-3-1v-2l3-1z" fill="#174f85"/><path d="M1151 674l2 2-9 6-6 3-7 1 3-3 14-7z" fill="#2c699e"/><path d="M1120 1099v3l-10 9-8 7v-3l5-5 10-9z" class="E"/><path d="M1199 852h2l-1 13-3 6-2-3 3-15z" fill="#0e5089"/><path d="M1047 791h11v1h-5v2h-9l-8 3h-3v2h5v1h-6v-4l10-4z" fill="#4689ba"/><path d="M1010 693l10 3-2 2 10 2 1 2-11-1-8-5z" fill="#569cc6"/><path d="M1091 1221l1 4-2 2-8 1-9-1-2-2 13-1 4-1v2l2-1z" fill="#7796ba"/><path d="M1019 726l15 1 2 2-6 4h-2v-2l-9-4z" fill="#5095c1"/><path d="M1155 516h1l1 9v14h-1l-1-9h-2l-2-7 3-1z" fill="#0a4076"/><path d="M1485 441h2v2l4 1 7 8 5 7-4-2-1-3-4-2-9-9z" fill="#3675ab"/><path d="M743 1098h7l2 1v2l-7 3h-6l2-1 1-4z" fill="#052354"/><path d="M1140 892l4 2-1 3-1-2-2 23h-1v-25z" fill="#4376a6"/><path d="M1095 724h1v16l2 1 1 5-4-2-3-6 1-6h1z" fill="#4b8fbf"/><path d="M1266 1208l2 2v13l-2 4-8 7v-3l7-8 1-12z" fill="#3b7cb2"/><path d="M1023 707l18 3v2h-12l-6-3z" fill="#5297c4"/><path d="M1162 580l6 3 2 13-3-1-5-13z" fill="#4a8ebb"/><path d="M1135 487l6 2 5 5v2h2v3l3 1 1 4-7-6-5-5z" fill="#2d6ca1"/><path d="M702 1141l5 1 1 5-5 2-2-2v-5z" class="C"/><path d="M1296 1102l2 1-3 1v2l-11 4h-2v2l-8 1 4-3z" fill="#6cb3d4"/><path d="M866 1058l4 1 3 2v2l5 1 2 4-12-5-2-1z" class="M"/><path d="M1735 1032h13l2 3-16 1z" fill="#72b9d9"/><path d="M1240 1247h1v6l-4 5h-2l-1 2v-6z" fill="#4d92c1"/><path d="M492 840l4 1v6l-5 1-2-2 1-4z" class="C"/><path d="M693 745l2 1 9-1-2 3-9 3h-5z" fill="#4f94c1"/><path d="M1095 633h2l-1 4-6 5-3 1v-3l-2-1 9-5z" fill="#113d71"/><path d="M1267 495l5 1 1 5-5 2-3-5z" fill="#bdabbd"/><path d="M939 844l5 2v2h2l-2 4-5 1-1-8z" class="D"/><path d="M937 665l1 2-8 16-2 2 1-7 5-10z" class="B"/><path d="M822 620h6l-4 3-9 3-3-1-3-2z" fill="#4487b6"/><path d="M1475 435h2v2l5 1 5 6v3l-4-2-8-8z" fill="#1a5b93"/><path d="M1208 1183h5l-3 2-1 7 1 5-5-5v-5z" fill="#07427a"/><path d="M1454 1160h10v2l-6 2h-5l3-2-15 1v-1z" class="B"/><path d="M1506 1153l7 2 8 7-2 1-8-4z" fill="#0a427a"/><path d="M738 777l3 1-6 7-6 8-1-2 4-7z" fill="#3170a6"/><path d="M1039 568v3l-3 7-4 1-1 2v-3l3-5v-2z" fill="#05386e"/><path d="M1561 948l4 1v6l-4 1-2-2v-5z" class="C"/><path d="M669 931l3 4 1 15-3-3-1-4z" class="O"/><path d="M804 578l4 1-1 1 2 2-5 1h-7v-4z" fill="#5499c2"/><path d="M1312 318l16 8 2 2-6-1-12-6z" fill="#1d6099"/><path d="M1542 1142l2 1-7 8-4 1-2-2z" fill="#4386bb"/><path d="M770 1078h5l1 5-9-1v-3z" fill="#042657"/><path d="M1104 701l2 4-5 11-2-1 1-6z" fill="#4285b9"/><path d="M600 1363l4 1-9 6-4-1v-3z" fill="#021f50"/><path d="M922 1217h8l2 4-4-1-4 2-6-3z" fill="#0b4d86"/><path d="M1137 1196v3l-13 6-2-2 12-6z" fill="#6eabce"/><path d="M1236 1190l5 1 11 6-2 1-5-2-6-1v-2l-2-1z" fill="#08457e"/><path d="M619 880l2 1v2l-8 7-4 3v-4l8-7z" fill="#0b3062"/><path d="M1546 1243l6 1-2 13h-1l-1-7z" fill="#115089"/><path d="M1207 1201l8 4 2 3-6 1-4-5z" fill="#0b4b84"/><path d="M864 1054l2 4v4l-5-1-3-1-1-3z" fill="#5ea5ca"/><path d="M1118 686l2 1-3 3-5 3-3 2h-4v-3l6-2z" fill="#70b7d8"/><path d="M720 599l3 1-2 4-3 1-3 6h-3l2-4z" class="F"/><path d="M1031 1209h1v6l5-4 9 1v1l-12 3-1 2v-2h-2z" fill="#859ebe"/><path d="M640 880l4 2-4 2-19-1v-1z" class="D"/><path d="M544 826l4 2-1 5-4 1-1-1v-5z" class="C"/><path d="M1171 603l3 2h2v-2l2 1-2 4h-3l-1 6 2 1h-2l-1 3z" class="F"/><path d="M1653 1083l2 4-7 16-2 1 3-9z" fill="#5095c2"/><path d="M622 889h5v3l-8 6h-2l2-5z" fill="#579ec6"/><path d="M1097 732h1l4 13v3l-5-1 1-2z" fill="#2c6ba0"/><path d="M782 630h7v3l-4 1h-7l1-3z" fill="#63a9ce"/><path d="M713 731l3 2-2 3h-2l-1 2-6 5-2-1z" fill="#3c7eb3"/><path d="M1085 694h2l1 5 1 3-3 5h-2v-6z" fill="#4082b4"/><path d="M1116 544l4 2 10 10-2 2-7-7z" fill="#3777aa"/><path d="M870 529l1 3-5 7h-3l1-4 5-5z" fill="#78accd"/><path d="M881 509l1 3-4 8h-3l-1-2 4-7z" fill="#69afd3"/><path d="M1026 1231h2l-1 10-2 4h-1l1-12z" fill="#0a4982"/><path d="M1217 1006h2l1 4-5 3h-2v2l-2-1 3-5z" fill="#0f4075"/><path d="M990 791l10 2 2 1v4h-10v-1l8-1-4-2-6-1z" fill="#559cc6"/><path d="M1081 640h6v3l-3 1h-8l2-3z" fill="#06295b"/><path d="M879 494h2l-2 5-5 9-1-4 2-5 3-1z" fill="#4e93be"/><path d="M602 966l3 1v5l1 5-4-1z" fill="#5298c2"/><path d="M736 885l4 1h-2v2h-3v2l-5 1-1-4z" fill="#488bbc"/><path d="M1048 705v3l-3 3-5-1-4-2z" fill="#68b0d2"/><path d="M608 951l2 2v5l-2 2-2 1-1 4 1-10z" fill="#5499c3"/><path d="M965 796h1v15h-3l-1-7h3z" fill="#0f4d86"/><path d="M1033 349l5 1v4l-5 1-1-4z" fill="#bdabbd"/><path d="M1349 1129l2 1-3 4-2 4h-2v2l-4 1 1-3 4-4z" fill="#61a8cd"/><path d="M708 800h2l-2 9-2 8h-1v-8z" fill="#397aae"/><path d="M964 791h10l-1 3h-7l-1 2z" fill="#4183b7"/><path d="M668 779h5l-1 3-4 1-4 3v-4zm-7 9l2 2h-2z" fill="#549bc4"/><path d="M1151 652l1 4-6 7h-2l2-4 4-6z" fill="#5da4ca"/><path d="M798 642h6l-1 2-7 1h-12v-1z" fill="#2f6fa5"/><path d="M723 316l2 1-3 3-8 4-2-1 3-3z" fill="#2769a0"/><path d="M679 1366l5 1 2 4-2 2-6-4z" fill="#246298"/><path d="M604 1205l6 1 4 4-7-1-5-2z" class="E"/><path d="M792 1058l1 4 5 2 4 5-5-2-7-5z" fill="#73a0c4"/><path d="M693 772l3 2-6 3-7-2 2-2z" fill="#1a578e"/><path d="M962 341l5 1-1 3-5 1-2-1 1-3z" fill="#d7cdd7"/><path d="M788 1086l4 2 2 4-6-1-5-2v-1h5z" fill="#4f82ae"/><path d="M1131 1041h1v5h2v7l-3-1 1-5h-2l-1 2 1-5z" fill="#59a1c8"/><path d="M1131 1024h1v11h-3v-7z" fill="#4183b7"/><path d="M1202 821l2 1v14l-2-2-1-9z" class="H"/><path d="M1512 779l4 2-1 4-6-2 1-3z" class="C"/><path d="M1097 727l2 4v6l-1 4-3-1 1-11z" fill="#3b7cb1"/><path d="M910 466h2l-2 5-5 4-2-2z" fill="#98a6c1"/><path d="M524 1190l6 1-2 4h-5z" class="F"/><path d="M544 825l7 2-1 6h-3v-5z" fill="#85a9c6"/><path d="M1096 703l2 1-1 7h-3l-1 3-1-2z" fill="#4082b5"/><path d="M1053 695h5l-5 5-3-1-3-2z" fill="#5ea6cb"/><path d="M1344 1134l2 1-5 4-4 4h-2l2-4z" fill="#6eb5d7"/><path d="M925 887l1 4-4 4h-2l-2 4h-2l2-4z" fill="#07427a"/><path d="M1016 697h8l4 1v2h-8z" fill="#478bbd"/><path d="M727 589l2 2-5 8-3 2 2-5z" fill="#3b7db0"/><path d="M1122 485l5 2 4 3v2l-5-1-4-4z" fill="#7eb8d7"/><path d="M750 437l4 2-2 5-3-1v-5z" class="C"/></svg>